# xmcd CD database file
#
# Track frame offsets:
#	175
#	20003
#	32517
#	47622
#	68555
#	83719
#	100169
#	130936
#	150153
#	176765
#	195155
#
# Disc length: 2831 seconds
#
# Revision: 1
# Processed by: cddbd v1.5.2PL0 Copyright (c) Steve Scherf et al.
# Submitted via: CDex 1.51
#
DISCID=790b0d0b
DTITLE=Ignatz Netzer - Walk On
DYEAR=1994
DGENRE=Blues
TTITLE0=Ain't Nobodys Business
TTITLE1=Let Me Love You
TTITLE2=I get the Blues when it rains
TTITLE3=Walk on
TTITLE4=Corinna
TTITLE5=Walking Blues
TTITLE6=Summertime
TTITLE7=You'll Need somebody on your Bond
TTITLE8=Backwater Blues
TTITLE9=Take A Little Walk With Me
TTITLE10=Before I Met You
EXTD=YEAR: 1994
EXTT0=
EXTT1=
EXTT2=
EXTT3=
EXTT4=
EXTT5=
EXTT6=
EXTT7=
EXTT8=
EXTT9=
EXTT10=
PLAYORDER=
